<?xml version="1.0" standalone="no"?>
<!DOCTYPE svg PUBLIC "-//W3C//DTD SVG 1.1//EN" "http://www.w3.org/Graphics/SVG/1.1/DTD/svg11.dtd" >
<svg xmlns="http://www.w3.org/2000/svg">
<metadata></metadata>
<defs>
<font id="strenuousblack" horiz-adv-x="700" >
<font-face units-per-em="1000" ascent="761" descent="-239" />
<missing-glyph horiz-adv-x="209" />
<glyph unicode="&#x28;C&#x29;" horiz-adv-x="782" d="M532 377h-99q-8 35 -39 35q-41 0 -41 -59q0 -27 11.5 -42.5t29.5 -15.5q13 0 24 9t14 24h100q-16 -128 -138 -128q-63 0 -104 41t-41 112q0 69 41 111t104 42q64 0 99 -33.5t39 -95.5zM656 351q0 111 -77.5 188t-188.5 77q-109 0 -187 -77t-78 -188q0 -109 78 -187 t187 -78q111 0 188.5 78t77.5 187zM757 351q0 -150 -107.5 -258t-259.5 -108q-151 0 -258.5 108t-107.5 258q0 152 107.5 259.5t258.5 107.5q152 0 259.5 -107.5t107.5 -259.5z" />
<glyph unicode="&#x28;R&#x29;" horiz-adv-x="442" d="M426 515q0 -85 -60.5 -144.5t-143.5 -59.5q-84 0 -143.5 59.5t-59.5 144.5q0 84 59.5 143t143.5 59q83 0 143.5 -59.5t60.5 -142.5zM222 353q67 0 114 47.5t47 114.5q0 66 -47 113t-114 47t-114 -47t-47 -113q0 -67 47 -114.5t114 -47.5zM334 406h-53l-55 64h-47v-64h-43 v221h100q77 0 77 -76q0 -53 -39 -72zM179 513h57q34 0 34 38q0 32 -34 32h-57v-70z" />
<glyph horiz-adv-x="0" />
<glyph horiz-adv-x="333" />
<glyph horiz-adv-x="209" />
<glyph unicode=" "  horiz-adv-x="209" />
<glyph unicode="&#x09;" horiz-adv-x="209" />
<glyph unicode="&#xa0;" horiz-adv-x="209" />
<glyph unicode="!" horiz-adv-x="342" d="M246 276h-154l-30 228v200h213v-199zM172 -5q-57 0 -93 36t-36 91q0 56 36 92t93 36q51 0 87.5 -36.5t36.5 -91.5q0 -54 -36.5 -90.5t-87.5 -36.5z" />
<glyph unicode="&#x22;" horiz-adv-x="488" d="M190 383h-136l-21 321h179zM434 383h-136l-21 321h179z" />
<glyph unicode="#" horiz-adv-x="612" d="M341 303l14 98h-95l-15 -98h96zM430 0h-136l27 168h-98l-25 -168h-135l27 168h-62v135h83l13 98h-96v136h117l27 167h134l-26 -167h96l26 167h135l-27 -167h74v-136h-94l-14 -98h108v-135h-129z" />
<glyph unicode="$" horiz-adv-x="661" d="M428 0h-199v40h-195v185h260q54 0 54 40t-54 40h-89q-89 0 -128 41t-39 122q0 102 45 143.5t146 46.5v46h199v-46h160v-179h-246q-41 0 -41 -36q0 -43 49 -43h87q178 0 178 -177q0 -79 -56 -129t-131 -54v-40z" />
<glyph unicode="%" horiz-adv-x="811" d="M167 469q37 0 37 70t-37 70q-36 0 -36 -70t36 -70zM167 356q-74 0 -116 49t-42 134t41.5 133.5t116.5 48.5q77 0 117.5 -48.5t40.5 -133.5q0 -86 -40.5 -134.5t-117.5 -48.5zM154 -36h-136l639 776h138zM644 96q37 0 37 70t-37 70q-36 0 -36 -70t36 -70zM644 -17 q-74 0 -116 49t-42 134t41.5 133.5t116.5 48.5q77 0 117.5 -48.5t40.5 -133.5q0 -86 -40.5 -134.5t-117.5 -48.5z" />
<glyph unicode="&#x26;" horiz-adv-x="539" d="M365 225v72h-66q-47 0 -47 -37q0 -35 47 -35h66zM504 0h-233q-134 0 -193 59.5t-59 155.5q0 55 14.5 91t30.5 48.5t39 21.5q-77 38 -77 136q0 31 10 61.5t32.5 61.5t67 50t106.5 19h188v-225h-152q-23 0 -23 -31q0 -30 23 -30h226v-418z" />
<glyph unicode="'" horiz-adv-x="244" d="M190 383h-136l-21 321h179z" />
<glyph unicode="(" horiz-adv-x="321" d="M296 -50l-56 -101q-104 39 -160 127t-56 251v247q0 163 56.5 251.5t159.5 125.5l56 -99q-140 -58 -140 -258v-287q0 -202 140 -257z" />
<glyph unicode=")" horiz-adv-x="321" d="M81 -151l-57 101q72 29 106.5 96.5t34.5 160.5v287q0 197 -141 258l57 99q103 -37 159.5 -125.5t56.5 -251.5v-247q0 -163 -56 -251t-160 -127z" />
<glyph unicode="*" horiz-adv-x="728" d="M364 341q5 -69 35.5 -159t30.5 -128q0 -57 -68 -57t-68 57q0 38 30.5 128t35.5 159q-39 -27 -78.5 -67.5t-63 -70.5t-50.5 -52.5t-50 -22.5q-24 0 -52 35.5t-28 70.5q0 33 45.5 50.5t106.5 21.5q73 4 162 46q-89 42 -162 46q-61 4 -106.5 21.5t-45.5 50.5q0 35 28 70.5 t52 35.5q23 0 50 -22.5t50.5 -52.5t63 -70.5t78.5 -67.5q-5 69 -35.5 159t-30.5 128q0 57 68 57t68 -57q0 -38 -30.5 -128t-35.5 -159q39 27 78.5 67.5t63 70.5t50.5 52.5t50 22.5q24 0 52 -35.5t28 -70.5q0 -33 -45.5 -50.5t-106.5 -21.5q-73 -4 -162 -46q89 -42 162 -46 q61 -4 106.5 -21.5t45.5 -50.5q0 -35 -28 -70.5t-52 -35.5q-23 0 -50 22.5t-50.5 52.5t-63 70.5t-78.5 67.5z" />
<glyph unicode="+" horiz-adv-x="570" d="M342 87h-115v207h-203v116h203v205h115v-205h204v-116h-204v-207z" />
<glyph unicode="," horiz-adv-x="308" d="M109 -79v52q42 9 64 44q-23 -6 -41 -6q-42 0 -73.5 30.5t-34.5 85.5q0 59 33.5 93.5t100.5 34.5q53 0 87 -34t34 -104q0 -74 -51 -132t-119 -64z" />
<glyph unicode="-" horiz-adv-x="312" d="M295 302h-279v144h279v-144z" />
<glyph unicode="." horiz-adv-x="291" d="M148 -5q-56 0 -92.5 36t-36.5 91q0 56 36.5 92t92.5 36q52 0 88.5 -36.5t36.5 -91.5q0 -54 -36.5 -90.5t-88.5 -36.5z" />
<glyph unicode="/" horiz-adv-x="513" d="M122 -94h-131l389 837h129z" />
<glyph unicode="0" horiz-adv-x="650" d="M324 213q36 0 55.5 36t19.5 103q0 70 -17 105t-58 35q-72 0 -72 -140q0 -139 72 -139zM324 -13q-147 0 -231 97.5t-84 267.5t82.5 267t232.5 97q154 0 235.5 -96t81.5 -268q0 -171 -81.5 -268t-235.5 -97z" />
<glyph unicode="1" horiz-adv-x="371" d="M330 0h-244v434h-61v218q78 2 84 52h221v-704z" />
<glyph unicode="2" horiz-adv-x="623" d="M609 0h-575v226q0 174 125 174h135q47 0 47 43q0 36 -41 36h-237v225h337q210 0 210 -224q0 -175 -210 -175h-51q-54 0 -54 -40v-40h314v-225z" />
<glyph unicode="3" horiz-adv-x="565" d="M332 0h-302v227h248q45 0 45 35q0 37 -45 37h-216v121h228q31 0 31 30q0 31 -31 31h-259v223h318q97 0 147.5 -49.5t50.5 -131.5q0 -48 -18.5 -88t-54.5 -59q44 -21 65.5 -63.5t21.5 -95.5q0 -108 -61.5 -162.5t-167.5 -54.5z" />
<glyph unicode="4" horiz-adv-x="628" d="M294 308v130l-88 -130h88zM533 0h-244v83h-271v193l290 428h225v-396h72v-225h-72v-83z" />
<glyph unicode="5" horiz-adv-x="626" d="M408 0h-368v225h266q47 0 47 40t-46 40h-269v399h558v-225h-288v-79h100q208 0 208 -194q0 -99 -56 -152.5t-152 -53.5z" />
<glyph unicode="6" horiz-adv-x="659" d="M387 271h-92q-17 32 -17 78q0 93 50 104h98q120 0 172 -54t52 -159q0 -120 -81 -186.5t-238 -66.5q-155 0 -238.5 102t-83.5 267q0 167 96.5 257.5t250.5 90.5h221v-225h-247q-36 0 -57.5 -32.5t-21.5 -97.5q0 -77 28 -108.5t82 -31.5q61 0 61 33q0 29 -35 29z" />
<glyph unicode="7" horiz-adv-x="579" d="M358 0h-256q16 297 158 479h-246v225h545v-203q-88 -65 -143.5 -204t-57.5 -297z" />
<glyph unicode="8" horiz-adv-x="643" d="M535 376q38 -12 63.5 -51t25.5 -106q0 -232 -303 -232q-305 0 -305 232q0 67 26 106t65 51q-33 17 -53.5 53t-20.5 86q0 29 8 55.5t28.5 53.5t52 47t83 32.5t116.5 12.5q81 0 140 -18.5t89.5 -49.5t44 -63.5t13.5 -69.5q0 -49 -20.5 -85.5t-52.5 -53.5zM344 297h-48 q-44 0 -44 -40q0 -45 69 -45q68 0 68 45q0 40 -45 40zM294 418h52q41 0 41 32q0 41 -66 41q-67 0 -67 -41q0 -32 40 -32z" />
<glyph unicode="9" horiz-adv-x="659" d="M302 0h-220v225h248q34 0 56.5 33t22.5 97q0 76 -28 108t-82 32q-62 0 -62 -33q0 -29 35 -29h91q18 -34 18 -78q0 -95 -50 -105h-98q-120 0 -172 54t-52 159q0 120 81 187t238 67q155 0 238.5 -102.5t83.5 -267.5q0 -167 -97 -257t-251 -90z" />
<glyph unicode=":" horiz-adv-x="316" d="M161 306q-58 0 -93.5 35t-35.5 93q0 54 36.5 90t92.5 36q51 0 87.5 -36.5t36.5 -89.5q0 -56 -36.5 -92t-87.5 -36zM161 -5q-57 0 -93 36t-36 91q0 56 36 92t93 36q51 0 87.5 -36.5t36.5 -91.5q0 -54 -36.5 -90.5t-87.5 -36.5z" />
<glyph unicode=";" horiz-adv-x="315" d="M289 434q0 -56 -37 -92t-91 -36q-60 0 -93.5 34.5t-33.5 93.5q0 55 34 90.5t93 35.5q52 0 90 -36.5t38 -89.5zM110 -79v52q39 8 65 44q-24 -6 -42 -6q-43 0 -76 31t-33 85q0 59 34 93.5t101 34.5q55 0 88 -35t33 -106q0 -72 -51.5 -129.5t-118.5 -63.5z" />
<glyph unicode="&#x3c;" horiz-adv-x="570" d="M546 87l-522 217v96l522 218v-133l-367 -133l367 -134v-131z" />
<glyph unicode="=" horiz-adv-x="570" d="M546 167h-522v116h522v-116zM546 421h-522v116h522v-116z" />
<glyph unicode="&#x3e;" horiz-adv-x="570" d="M546 304l-522 -217v131l367 134l-367 133v133l522 -218v-96z" />
<glyph unicode="?" horiz-adv-x="550" d="M272 276h-186q0 135 131 135q48 0 48 36q0 32 -42 32h-203v225h306q210 0 210 -178q0 -182 -212 -182q-52 0 -52 -68zM186 -5q-56 0 -93 36t-37 91t37 91.5t93 36.5q51 0 88 -36.5t37 -91.5q0 -54 -37 -90.5t-88 -36.5z" />
<glyph unicode="@" horiz-adv-x="659" d="M621 140v-125q-29 -28 -96.5 -52t-129.5 -24q-96 0 -171 34t-119.5 90.5t-67.5 124t-23 140.5q0 181 90 285.5t267 104.5q139 0 194.5 -69t55.5 -195v-264h-192q-83 0 -132 41.5t-49 120.5q0 81 49.5 124t118.5 43q60 0 88 -26q0 55 -35 83.5t-98 28.5q-110 0 -167 -72 t-57 -206q0 -130 74.5 -197.5t196.5 -67.5q53 0 113 22t90 56zM493 304v69q-19 33 -63 33q-47 0 -47 -56q0 -46 47 -46h63z" />
<glyph unicode="A" horiz-adv-x="676" d="M344 189l-31 147l-30 -147h61zM676 0h-285l-15 58h-124l-13 -58h-239l216 704h244z" />
<glyph unicode="B" horiz-adv-x="635" d="M362 481h-77v-61h77q26 0 26 30q0 31 -26 31zM285 227h67q39 0 39 35q0 37 -39 37h-67v-72zM400 0h-358v704h373q97 0 147.5 -49.5t50.5 -131.5q0 -48 -18.5 -88t-54.5 -59q44 -21 66 -64t22 -95q0 -107 -62 -162t-166 -55z" />
<glyph unicode="C" horiz-adv-x="682" d="M675 410h-235q-17 82 -91 82q-44 0 -70.5 -37t-26.5 -103t26.5 -102.5t70.5 -36.5q31 0 57 22t33 57h235q-18 -145 -98.5 -225t-226.5 -80q-149 0 -245 97t-96 268q0 165 95.5 264.5t242.5 99.5q151 0 234.5 -80t94.5 -226z" />
<glyph unicode="D" horiz-adv-x="684" d="M284 226h10q75 0 110 34.5t35 92.5q0 56 -34 91t-106 35h-15v-253zM294 0h-253v704h258q168 0 272 -98.5t104 -251.5q0 -163 -105.5 -258.5t-275.5 -95.5z" />
<glyph unicode="E" horiz-adv-x="568" d="M540 0h-303q-105 0 -166.5 55t-61.5 162q0 53 21.5 96t65.5 63q-72 39 -72 147q0 82 50.5 131.5t147.5 49.5h317v-223h-260q-30 0 -30 -31q0 -30 30 -30h230v-121h-224q-39 0 -39 -37q0 -35 39 -35h255v-227z" />
<glyph unicode="F" horiz-adv-x="503" d="M285 0h-243v704h439v-225h-196v-48h195v-164h-195v-267z" />
<glyph unicode="G" horiz-adv-x="718" d="M687 0h-165v55q-26 -30 -74.5 -49t-101.5 -19q-147 0 -244 99.5t-97 265.5q0 163 97 263.5t242 100.5q153 0 241.5 -81t98.5 -225h-245q-7 39 -31.5 60.5t-61.5 21.5q-44 0 -70.5 -37t-26.5 -103q0 -74 28.5 -109t68.5 -35q67 0 84 71h-99v88h356v-367z" />
<glyph unicode="H" horiz-adv-x="682" d="M641 0h-244v247h-112v-247h-243v704h243v-232h112v232h244v-704z" />
<glyph unicode="I" horiz-adv-x="332" d="M288 0h-244v704h244v-704z" />
<glyph unicode="J" horiz-adv-x="374" d="M20 0v225q75 0 75 87v392h244v-429q0 -127 -77 -201t-242 -74z" />
<glyph unicode="K" horiz-adv-x="694" d="M698 0h-296l-117 243v-243h-243v704h243v-226l129 226h265l-200 -308z" />
<glyph unicode="L" horiz-adv-x="469" d="M460 0h-418v704h243v-479h175v-225z" />
<glyph unicode="M" horiz-adv-x="780" d="M738 0h-206v251l-112 -251h-60l-112 250v-250h-206v704h259l97 -221l95 221h245v-704z" />
<glyph unicode="N" horiz-adv-x="690" d="M650 0h-207l-178 274v-274h-223v704h234l149 -233v233h225v-704z" />
<glyph unicode="O" d="M351 -13q-159 0 -250.5 97t-91.5 268q0 167 92 265.5t250 98.5t249 -98.5t91 -265.5q0 -171 -90.5 -268t-249.5 -97zM351 213q45 0 71.5 34t26.5 105q0 73 -24 106.5t-74 33.5t-74.5 -33.5t-24.5 -106.5q0 -139 99 -139z" />
<glyph unicode="P" horiz-adv-x="641" d="M285 366h46q52 0 52 56q0 57 -52 57h-46v-113zM285 0h-243v704h318q123 0 196 -70.5t73 -211.5q0 -143 -74.5 -212.5t-205.5 -69.5h-64v-140z" />
<glyph unicode="Q" horiz-adv-x="739" d="M735 211v-224q-82 48 -147 48q-35 0 -59 -6q-76 -42 -178 -42h-1q-159 0 -250 97t-91 268q0 167 92 265.5t250 98.5t249 -98.5t91 -265.5q0 -89 -26 -159q33 18 70 18zM351 213q45 0 71.5 34t26.5 105q0 73 -24 106.5t-74 33.5t-74.5 -33.5t-24.5 -106.5q0 -139 99 -139z " />
<glyph unicode="R" horiz-adv-x="671" d="M285 396h59q39 0 39 42q0 41 -39 41h-59v-83zM682 0h-271l-126 231v-231h-243v704h331q122 0 189 -56t67 -171q0 -141 -98 -208z" />
<glyph unicode="S" horiz-adv-x="646" d="M397 0h-368v225h267q46 0 46 40t-46 40h-46q-116 0 -171.5 52.5t-55.5 143.5q0 93 56 148t160 55h345v-225h-245q-43 0 -43 -38q0 -41 43 -41h93q106 0 154.5 -54t48.5 -139q0 -92 -58.5 -149.5t-179.5 -57.5z" />
<glyph unicode="T" horiz-adv-x="613" d="M435 0h-255v479h-176v225h604v-225h-173v-479z" />
<glyph unicode="U" horiz-adv-x="667" d="M386 264v440h244v-415q0 -147 -75 -224.5t-218 -77.5q-146 0 -224 77t-78 224v416h244v-440q0 -52 55 -52q52 0 52 52z" />
<glyph unicode="V" horiz-adv-x="676" d="M460 0h-244l-216 704h285l77 -338l75 338h239z" />
<glyph unicode="W" horiz-adv-x="945" d="M776 0h-246l-58 275l-58 -275h-244l-166 704h275l77 -379l74 379h210l77 -379l75 379h149z" />
<glyph unicode="X" horiz-adv-x="697" d="M690 0h-328l-58 139l-64 -139h-236l192 340l-187 364h323l61 -129l63 129h221l-176 -319z" />
<glyph unicode="Y" horiz-adv-x="649" d="M375 0h-339v225h264q66 0 66 54h-102q-111 0 -170 58t-59 170v197h245v-192q0 -43 15.5 -59.5t49.5 -16.5h25v268h243v-432q0 -118 -65 -195t-173 -77z" />
<glyph unicode="Z" horiz-adv-x="628" d="M594 0h-563v186l241 293h-241v225h562v-189l-242 -290h243v-225z" />
<glyph unicode="[" horiz-adv-x="273" d="M249 -151h-225v1002h225v-107h-94v-785h94v-110z" />
<glyph unicode="\" horiz-adv-x="513" d="M509 -94h-131l-387 837h129z" />
<glyph unicode="]" horiz-adv-x="273" d="M249 -151h-225v110h94v785h-94v107h225v-1002z" />
<glyph unicode="^" horiz-adv-x="549" d="M526 297h-162l-90 238l-96 -238h-154l186 446h124z" />
<glyph unicode="_" horiz-adv-x="718" d="M707 -134h-693v123h693v-123z" />
<glyph unicode="`" horiz-adv-x="363" d="M272 747l-228 93l66 91l209 -125z" />
<glyph unicode="a" horiz-adv-x="671" d="M636 0h-226v57q-40 -70 -167 -70q-101 0 -167.5 57.5t-66.5 184.5q0 122 67.5 173t191.5 51h56q38 -11 38 -100q0 -56 -10 -82h-74q-38 0 -38 -32q0 -14 10 -24t28 -10q64 0 87.5 29.5t23.5 118.5q0 73 -20 99.5t-67 26.5h-213v225h309q99 0 168.5 -70.5t69.5 -201.5 v-432z" />
<glyph unicode="b" horiz-adv-x="635" d="M362 481h-77v-61h77q26 0 26 30q0 31 -26 31zM285 227h67q39 0 39 35q0 37 -39 37h-67v-72zM400 0h-358v704h373q97 0 147.5 -49.5t50.5 -131.5q0 -48 -18.5 -88t-54.5 -59q44 -21 66 -64t22 -95q0 -107 -62 -162t-166 -55z" />
<glyph unicode="c" horiz-adv-x="682" d="M675 410h-235q-17 82 -91 82q-44 0 -70.5 -37t-26.5 -103t26.5 -102.5t70.5 -36.5q31 0 57 22t33 57h235q-18 -145 -98.5 -225t-226.5 -80q-149 0 -245 97t-96 268q0 165 95.5 264.5t242.5 99.5q151 0 234.5 -80t94.5 -226z" />
<glyph unicode="d" horiz-adv-x="684" d="M284 226h10q75 0 110 34.5t35 92.5q0 56 -34 91t-106 35h-15v-253zM294 0h-253v704h258q168 0 272 -98.5t104 -251.5q0 -163 -105.5 -258.5t-275.5 -95.5z" />
<glyph unicode="e" horiz-adv-x="640" d="M606 0h-250q-153 0 -250 94t-97 254q0 163 89 265.5t243 102.5q134 0 212 -62t78 -180q0 -110 -55.5 -167t-175.5 -57h-80q-37 28 -37 98q0 53 16 86h57q48 0 48 31q0 29 -44 29q-105 0 -105 -146q0 -59 22 -91t55 -32h274v-225z" />
<glyph unicode="f" horiz-adv-x="503" d="M285 0h-243v704h439v-225h-196v-48h195v-164h-195v-267z" />
<glyph unicode="g" horiz-adv-x="718" d="M687 0h-165v55q-26 -30 -74.5 -49t-101.5 -19q-147 0 -244 99.5t-97 265.5q0 163 97 263.5t242 100.5q153 0 241.5 -81t98.5 -225h-245q-7 39 -31.5 60.5t-61.5 21.5q-44 0 -70.5 -37t-26.5 -103q0 -74 28.5 -109t68.5 -35q67 0 84 71h-99v88h356v-367z" />
<glyph unicode="h" horiz-adv-x="682" d="M641 0h-244v247h-112v-247h-243v704h243v-232h112v232h244v-704z" />
<glyph unicode="i" horiz-adv-x="332" d="M288 0h-244v704h244v-704z" />
<glyph unicode="j" horiz-adv-x="375" d="M212 454q-52 0 -89.5 37.5t-37.5 90.5q0 52 37.5 90t89.5 38t89.5 -38t37.5 -90q0 -53 -37.5 -90.5t-89.5 -37.5zM14 -164v225q76 0 76 87v296h242v-333q0 -126 -76.5 -200.5t-241.5 -74.5z" />
<glyph unicode="k" horiz-adv-x="694" d="M698 0h-296l-117 243v-243h-243v704h243v-226l129 226h265l-200 -308z" />
<glyph unicode="l" horiz-adv-x="469" d="M460 0h-418v704h243v-479h175v-225z" />
<glyph unicode="m" horiz-adv-x="861" d="M826 0h-222v447q0 43 -35 43q-38 0 -38 -43v-447h-201v447q0 43 -39 43q-35 0 -35 -43v-447h-221v483q0 117 69.5 175t169.5 58q107 0 155 -63q54 63 155 63q40 0 80.5 -13t77.5 -38.5t60.5 -70.5t23.5 -101v-493z" />
<glyph unicode="n" horiz-adv-x="672" d="M635 0h-244v435q0 56 -60 56q-52 0 -52 -56v-435h-245v414q0 147 76 224.5t221 77.5q147 0 225.5 -77.5t78.5 -224.5v-414z" />
<glyph unicode="o" d="M351 -13q-159 0 -250.5 97t-91.5 268q0 167 92 265.5t250 98.5t249 -98.5t91 -265.5q0 -171 -90.5 -268t-249.5 -97zM351 213q45 0 71.5 34t26.5 105q0 73 -24 106.5t-74 33.5t-74.5 -33.5t-24.5 -106.5q0 -139 99 -139z" />
<glyph unicode="p" horiz-adv-x="641" d="M285 366h46q52 0 52 56q0 57 -52 57h-46v-113zM285 0h-243v704h318q123 0 196 -70.5t73 -211.5q0 -143 -74.5 -212.5t-205.5 -69.5h-64v-140z" />
<glyph unicode="q" horiz-adv-x="739" d="M735 211v-224q-82 48 -147 48q-35 0 -59 -6q-76 -42 -178 -42h-1q-159 0 -250 97t-91 268q0 167 92 265.5t250 98.5t249 -98.5t91 -265.5q0 -89 -26 -159q33 18 70 18zM351 213q45 0 71.5 34t26.5 105q0 73 -24 106.5t-74 33.5t-74.5 -33.5t-24.5 -106.5q0 -139 99 -139z " />
<glyph unicode="r" horiz-adv-x="671" d="M285 396h59q39 0 39 42q0 41 -39 41h-59v-83zM682 0h-271l-126 231v-231h-243v704h331q122 0 189 -56t67 -171q0 -141 -98 -208z" />
<glyph unicode="s" horiz-adv-x="646" d="M397 0h-368v225h267q46 0 46 40t-46 40h-46q-116 0 -171.5 52.5t-55.5 143.5q0 93 56 148t160 55h345v-225h-245q-43 0 -43 -38q0 -41 43 -41h93q106 0 154.5 -54t48.5 -139q0 -92 -58.5 -149.5t-179.5 -57.5z" />
<glyph unicode="t" horiz-adv-x="613" d="M435 0h-255v479h-176v225h604v-225h-173v-479z" />
<glyph unicode="u" horiz-adv-x="667" d="M386 264v440h244v-415q0 -147 -75 -224.5t-218 -77.5q-146 0 -224 77t-78 224v416h244v-440q0 -52 55 -52q52 0 52 52z" />
<glyph unicode="v" horiz-adv-x="676" d="M460 0h-244l-216 704h285l77 -338l75 338h239z" />
<glyph unicode="w" horiz-adv-x="855" d="M597 252v452h220v-484q0 -117 -68 -175t-161 -58q-113 0 -158 63q-57 -63 -165 -63q-34 0 -72.5 13.5t-74.5 39t-59.5 70t-23.5 100.5v494h221v-452q0 -39 34 -39q36 0 36 39v452h202v-452q0 -39 35 -39q34 0 34 39z" />
<glyph unicode="x" horiz-adv-x="697" d="M690 0h-328l-58 139l-64 -139h-236l192 340l-187 364h323l61 -129l63 129h221l-176 -319z" />
<glyph unicode="y" horiz-adv-x="649" d="M375 0h-339v225h264q66 0 66 54h-102q-111 0 -170 58t-59 170v197h245v-192q0 -43 15.5 -59.5t49.5 -16.5h25v268h243v-432q0 -118 -65 -195t-173 -77z" />
<glyph unicode="z" horiz-adv-x="628" d="M594 0h-563v186l241 293h-241v225h562v-189l-242 -290h243v-225z" />
<glyph unicode="{" horiz-adv-x="352" d="M330 -151h-87q-62 0 -105.5 36.5t-43.5 122.5v210q0 82 -30 82h-46v126h46q30 0 30 77v204q0 75 43 109.5t104 34.5h89v-117h-58q-46 0 -46 -125v-142q0 -71 -54 -107q30 -20 42 -43t12 -59v-199q0 -92 40 -92h64v-118z" />
<glyph unicode="|" horiz-adv-x="330" d="M239 -83h-148v898h148v-898z" />
<glyph unicode="}" horiz-adv-x="352" d="M110 -151h-86v118h61q43 0 43 92v199q0 36 11.5 59t40.5 43q-52 35 -52 107v142q0 125 -46 125h-58v117h88q61 0 103.5 -34.5t42.5 -109.5v-204q0 -77 31 -77h44v-126h-44q-31 0 -31 -82v-210q0 -86 -43.5 -122.5t-104.5 -36.5z" />
<glyph unicode="~" horiz-adv-x="570" d="M546 440v-148q-57 -47 -121 -47q-52 0 -137 42.5t-132 42.5q-64 0 -132 -56v134q51 51 116 51q58 0 143.5 -43.5t126.5 -43.5q68 0 136 68z" />
<glyph unicode="&#xa1;" horiz-adv-x="342" d="M93 428h154l30 -228v-200h-213v199zM167 709q57 0 93 -36t36 -91q0 -56 -36 -92t-93 -36q-51 0 -87.5 36.5t-36.5 91.5q0 54 36.5 90.5t87.5 36.5z" />
<glyph unicode="&#xa2;" horiz-adv-x="650" d="M428 0h-199v64q-96 26 -153 100.5t-57 188.5q0 108 57 183.5t153 101.5v66h199v-63q182 -44 198 -241h-216q-16 68 -81 68q-41 0 -64.5 -30.5t-23.5 -84.5q0 -55 24 -85.5t64 -30.5q27 0 50.5 18.5t30.5 47.5h215q-27 -198 -197 -241v-62z" />
<glyph unicode="&#xa3;" horiz-adv-x="583" d="M558 0h-529v225h48v70h-48v105h48v44q0 121 69 196.5t196 75.5q80 0 139 -32.5t80 -71.5l-131 -150q-24 33 -63 33q-25 0 -41 -17.5t-16 -43.5v-33h101v-106h-101v-70h248v-225z" />
<glyph unicode="&#xa4;" horiz-adv-x="514" d="M349 345q0 35 -25.5 59t-62.5 24t-62.5 -24t-25.5 -59t25.5 -59t62.5 -24t62.5 24t25.5 59zM403 134l-63 66q-40 -16 -79 -16t-79 16l-63 -66l-77 79l58 59q-20 37 -20 73t20 73l-58 59l77 79l63 -66q40 16 79 16t79 -16l63 66l77 -79l-58 -59q20 -37 20 -73t-20 -73 l58 -59z" />
<glyph unicode="&#xa5;" horiz-adv-x="748" d="M602 57h-98v-57h-258v57h-109v104h109v87h-109v105h61l-198 351h277l97 -179l98 179h277l-199 -351h52v-105h-98v-87h98v-104z" />
<glyph unicode="&#xa6;" horiz-adv-x="330" d="M239 -83h-148v399h148v-399zM239 815v-382h-148v382h148z" />
<glyph unicode="&#xa7;" horiz-adv-x="535" d="M305 390h-81q-26 0 -26 -37q0 -39 26 -39h81q26 0 26 37q0 39 -26 39zM356 0h-213v146h150q36 0 36 37q0 39 -36 39h-145q-49 0 -75 32t-26 79q0 80 44 109q-58 31 -58 101q0 161 140 161h213v-146h-149q-36 0 -36 -37q0 -39 36 -39h144q49 0 75 -32t26 -79 q0 -82 -43 -109q58 -32 58 -101q0 -161 -141 -161z" />
<glyph unicode="&#xa8;" horiz-adv-x="479" d="M352 756q-38 0 -60.5 23t-22.5 60q0 35 23.5 58.5t59.5 23.5q33 0 56.5 -24t23.5 -58q0 -36 -23.5 -59.5t-56.5 -23.5zM128 756q-38 0 -61 23t-23 60q0 35 24 58.5t60 23.5q33 0 56.5 -24t23.5 -58q0 -36 -23.5 -59.5t-56.5 -23.5z" />
<glyph unicode="&#xaa;" horiz-adv-x="432" d="M219 404l-17 81l-16 -81h33zM402 300h-157l-8 32h-68l-8 -32h-131l119 387h134z" />
<glyph unicode="&#xab;" horiz-adv-x="592" d="M283 171l-82 -73l-187 234l186 231l83 -70l-136 -161zM579 171l-82 -73l-187 234l186 231l83 -70l-136 -161z" />
<glyph unicode="&#xac;" horiz-adv-x="658" d="M592 0h-135v285h-415v131h550v-416z" />
<glyph unicode="&#xad;" horiz-adv-x="312" d="M295 302h-279v144h279v-144z" />
<glyph unicode="&#xaf;" horiz-adv-x="447" d="M400 773h-356v134h356v-134z" />
<glyph unicode="&#xb0;" horiz-adv-x="371" d="M339 571q0 -65 -38.5 -106t-117.5 -41q-78 0 -116 41t-38 106q0 64 38 104.5t116 40.5q79 0 117.5 -40.5t38.5 -104.5zM254 572q0 67 -71 67q-70 0 -70 -67q0 -31 17.5 -50.5t52.5 -19.5q36 0 53.5 19.5t17.5 50.5z" />
<glyph unicode="&#xb1;" horiz-adv-x="570" d="M342 87h-115v207h-203v116h203v205h115v-205h204v-116h-204v-207zM546 -66h-522v116h522v-116z" />
<glyph unicode="&#xb2;" horiz-adv-x="341" d="M319 363h-287v113q0 87 62 87h68q23 0 23 21q0 18 -20 18h-119v113h169q105 0 105 -112q0 -88 -105 -88h-26q-27 0 -27 -20v-20h157v-112z" />
<glyph unicode="&#xb3;" horiz-adv-x="312" d="M181 363h-151v113h124q22 0 22 18t-22 18h-108v61h114q15 0 15 15t-15 15h-130v112h159q49 0 74 -25t25 -66q0 -54 -36 -73q43 -21 43 -80q0 -54 -30.5 -81t-83.5 -27z" />
<glyph unicode="&#xb4;" horiz-adv-x="363" d="M319 840l-228 -93l-47 59l209 125z" />
<glyph unicode="&#xb6;" horiz-adv-x="577" d="M531 -93h-137v543h-111v-543h-140v546q-63 13 -91 43.5t-28 84.5q0 56 38 89.5t120 33.5h349v-797z" />
<glyph unicode="&#xb7;" horiz-adv-x="291" d="M148 225q-56 0 -92.5 36t-36.5 91q0 56 36.5 92t92.5 36q52 0 88.5 -36.5t36.5 -91.5q0 -54 -36.5 -90.5t-88.5 -36.5z" />
<glyph unicode="&#xb8;" horiz-adv-x="258" d="M101 -239v34q28 6 42 29q-13 -4 -26 -4q-29 0 -51 20.5t-22 56.5q0 38 23 61t66 23q36 0 58 -22.5t22 -69.5q0 -49 -33.5 -86.5t-78.5 -41.5z" />
<glyph unicode="&#xb9;" horiz-adv-x="215" d="M180 363h-122v217h-31v109q39 0 42 26h111v-352z" />
<glyph unicode="&#xba;" horiz-adv-x="445" d="M223 293q-88 0 -138 53.5t-50 147.5q0 92 50.5 146t137.5 54t137 -54t50 -146q0 -94 -50 -147.5t-137 -53.5zM223 417q54 0 54 77t-54 77t-54 -77t54 -77z" />
<glyph unicode="&#xbb;" horiz-adv-x="590" d="M94 98l-80 73l134 161l-134 161l82 70l186 -231zM389 98l-80 73l134 161l-134 161l82 70l186 -231z" />
<glyph unicode="&#xbc;" horiz-adv-x="804" d="M251 363h-122v217h-31v109q39 0 42 26h111v-352zM145 -36h-136l639 776h138zM640 144v65l-44 -65h44zM759 -10h-122v41h-135v97l145 214h112v-198h36v-113h-36v-41z" />
<glyph unicode="&#xbd;" horiz-adv-x="837" d="M251 363h-122v217h-31v109q39 0 42 26h111v-352zM145 -36h-136l639 776h138zM827 -10h-287v113q0 87 62 87h68q23 0 23 21q0 18 -20 18h-119v113h169q105 0 105 -112q0 -88 -105 -88h-26q-27 0 -27 -20v-20h157v-112z" />
<glyph unicode="&#xbe;" horiz-adv-x="795" d="M175 363h-151v113h124q22 0 22 18t-22 18h-108v61h114q15 0 15 15t-15 15h-130v112h159q49 0 74 -25t25 -66q0 -54 -36 -73q43 -21 43 -80q0 -54 -30.5 -81t-83.5 -27zM145 -36h-136l639 776h138zM620 144v65l-44 -65h44zM739 -10h-122v41h-135v97l145 214h112v-198h36 v-113h-36v-41z" />
<glyph unicode="&#xbf;" horiz-adv-x="550" d="M276 428h186q0 -135 -131 -135q-48 0 -48 -36q0 -32 42 -32h203v-225h-306q-210 0 -210 178q0 182 212 182q52 0 52 68zM362 709q56 0 93 -36t37 -91t-37 -91.5t-93 -36.5q-51 0 -88 36.5t-37 91.5q0 54 37 90.5t88 36.5z" />
<glyph unicode="&#xc0;" horiz-adv-x="676" d="M344 189l-31 147l-30 -147h61zM676 0h-285l-15 58h-124l-13 -58h-239l216 704h244zM398 747l-228 93l66 91l209 -125z" />
<glyph unicode="&#xc1;" horiz-adv-x="676" d="M344 189l-31 147l-30 -147h61zM676 0h-285l-15 58h-124l-13 -58h-239l216 704h244zM505 840l-228 -93l-47 59l209 125z" />
<glyph unicode="&#xc2;" horiz-adv-x="676" d="M344 189l-31 147l-30 -147h61zM676 0h-285l-15 58h-124l-13 -58h-239l216 704h244zM536 789l-49 -42l-149 93l-148 -93l-50 42l158 142h80z" />
<glyph unicode="&#xc3;" horiz-adv-x="676" d="M344 189l-31 147l-30 -147h61zM676 0h-285l-15 58h-124l-13 -58h-239l216 704h244zM462 909l78 -39q-9 -39 -43 -69.5t-80 -30.5q-40 0 -83.5 17.5t-74.5 17.5q-34 0 -48 -40l-76 38q10 39 43.5 68.5t80.5 29.5q40 0 86.5 -17.5t71.5 -17.5q32 0 45 43z" />
<glyph unicode="&#xc4;" horiz-adv-x="676" d="M344 189l-31 147l-30 -147h61zM676 0h-285l-15 58h-124l-13 -58h-239l216 704h244zM452 756q-38 0 -60.5 23t-22.5 60q0 35 23.5 58.5t59.5 23.5q33 0 56.5 -24t23.5 -58q0 -36 -23.5 -59.5t-56.5 -23.5zM228 756q-38 0 -61 23t-23 60q0 35 24 58.5t60 23.5 q33 0 56.5 -24t23.5 -58q0 -36 -23.5 -59.5t-56.5 -23.5z" />
<glyph unicode="&#xc5;" horiz-adv-x="676" d="M344 189l-31 147l-30 -147h61zM676 0h-285l-15 58h-124l-13 -58h-239l216 704h244zM401 833q0 55 -65 55q-63 0 -63 -55q0 -58 63 -58q65 0 65 58zM486 833q0 -129 -150 -129q-147 0 -147 129q0 128 147 128q150 0 150 -128z" />
<glyph unicode="&#xc6;" horiz-adv-x="925" d="M391 189v290h-47l-61 -290h108zM905 0h-514v58h-139l-13 -58h-239l216 704h689v-225h-287v-61h258v-121h-262v-72h291v-225z" />
<glyph unicode="&#xc7;" horiz-adv-x="682" d="M675 410h-235q-17 82 -91 82q-44 0 -70.5 -37t-26.5 -103t26.5 -102.5t70.5 -36.5q31 0 57 22t33 57h235q-18 -145 -98.5 -225t-226.5 -80q-149 0 -245 97t-96 268q0 165 95.5 264.5t242.5 99.5q151 0 234.5 -80t94.5 -226zM313 -239v34q28 6 42 29q-13 -4 -26 -4 q-29 0 -51 20.5t-22 56.5q0 38 23 61t66 23q36 0 58 -22.5t22 -69.5q0 -49 -33.5 -86.5t-78.5 -41.5z" />
<glyph unicode="&#xc8;" horiz-adv-x="568" d="M540 0h-303q-105 0 -166.5 55t-61.5 162q0 53 21.5 96t65.5 63q-72 39 -72 147q0 82 50.5 131.5t147.5 49.5h317v-223h-260q-30 0 -30 -31q0 -30 30 -30h230v-121h-224q-39 0 -39 -37q0 -35 39 -35h255v-227zM364 747l-228 93l66 91l209 -125z" />
<glyph unicode="&#xc9;" horiz-adv-x="568" d="M540 0h-303q-105 0 -166.5 55t-61.5 162q0 53 21.5 96t65.5 63q-72 39 -72 147q0 82 50.5 131.5t147.5 49.5h317v-223h-260q-30 0 -30 -31q0 -30 30 -30h230v-121h-224q-39 0 -39 -37q0 -35 39 -35h255v-227zM451 840l-228 -93l-47 59l209 125z" />
<glyph unicode="&#xca;" horiz-adv-x="568" d="M540 0h-303q-105 0 -166.5 55t-61.5 162q0 53 21.5 96t65.5 63q-72 39 -72 147q0 82 50.5 131.5t147.5 49.5h317v-223h-260q-30 0 -30 -31q0 -30 30 -30h230v-121h-224q-39 0 -39 -37q0 -35 39 -35h255v-227zM492 789l-49 -42l-149 93l-148 -93l-50 42l158 142h80z" />
<glyph unicode="&#xcb;" horiz-adv-x="568" d="M540 0h-303q-105 0 -166.5 55t-61.5 162q0 53 21.5 96t65.5 63q-72 39 -72 147q0 82 50.5 131.5t147.5 49.5h317v-223h-260q-30 0 -30 -31q0 -30 30 -30h230v-121h-224q-39 0 -39 -37q0 -35 39 -35h255v-227zM418 756q-38 0 -60.5 23t-22.5 60q0 35 23.5 58.5t59.5 23.5 q33 0 56.5 -24t23.5 -58q0 -36 -23.5 -59.5t-56.5 -23.5zM194 756q-38 0 -61 23t-23 60q0 35 24 58.5t60 23.5q33 0 56.5 -24t23.5 -58q0 -36 -23.5 -59.5t-56.5 -23.5z" />
<glyph unicode="&#xcc;" horiz-adv-x="332" d="M288 0h-244v704h244v-704zM227 747l-228 93l66 91l209 -125z" />
<glyph unicode="&#xcd;" horiz-adv-x="332" d="M288 0h-244v704h244v-704zM333 840l-228 -93l-47 59l209 125z" />
<glyph unicode="&#xce;" horiz-adv-x="332" d="M288 0h-244v704h244v-704zM364 789l-49 -42l-149 93l-148 -93l-50 42l158 142h80z" />
<glyph unicode="&#xcf;" horiz-adv-x="332" d="M288 0h-244v704h244v-704zM280 756q-38 0 -60.5 23t-22.5 60q0 35 23.5 58.5t59.5 23.5q33 0 56.5 -24t23.5 -58q0 -36 -23.5 -59.5t-56.5 -23.5zM56 756q-38 0 -61 23t-23 60q0 35 24 58.5t60 23.5q33 0 56.5 -24t23.5 -58q0 -36 -23.5 -59.5t-56.5 -23.5z" />
<glyph unicode="&#xd0;" horiz-adv-x="687" d="M296 0h-252v282h-44v144h44v278h257q168 0 272.5 -98.5t104.5 -251.5q0 -163 -106 -258.5t-276 -95.5zM286 226h10q144 0 144 127q0 56 -33.5 91t-105.5 35h-15v-53h55v-144h-55v-56z" />
<glyph unicode="&#xd1;" horiz-adv-x="690" d="M650 0h-207l-178 274v-274h-223v704h234l149 -233v233h225v-704zM469 909l78 -39q-9 -39 -43 -69.5t-80 -30.5q-40 0 -83.5 17.5t-74.5 17.5q-34 0 -48 -40l-76 38q10 39 43.5 68.5t80.5 29.5q40 0 86.5 -17.5t71.5 -17.5q32 0 45 43z" />
<glyph unicode="&#xd2;" d="M351 -13q-159 0 -250.5 97t-91.5 268q0 167 92 265.5t250 98.5t249 -98.5t91 -265.5q0 -171 -90.5 -268t-249.5 -97zM351 213q45 0 71.5 34t26.5 105q0 73 -24 106.5t-74 33.5t-74.5 -33.5t-24.5 -106.5q0 -139 99 -139zM410 747l-228 93l66 91l209 -125z" />
<glyph unicode="&#xd3;" d="M351 -13q-159 0 -250.5 97t-91.5 268q0 167 92 265.5t250 98.5t249 -98.5t91 -265.5q0 -171 -90.5 -268t-249.5 -97zM351 213q45 0 71.5 34t26.5 105q0 73 -24 106.5t-74 33.5t-74.5 -33.5t-24.5 -106.5q0 -139 99 -139zM517 840l-228 -93l-47 59l209 125z" />
<glyph unicode="&#xd4;" d="M351 -13q-159 0 -250.5 97t-91.5 268q0 167 92 265.5t250 98.5t249 -98.5t91 -265.5q0 -171 -90.5 -268t-249.5 -97zM351 213q45 0 71.5 34t26.5 105q0 73 -24 106.5t-74 33.5t-74.5 -33.5t-24.5 -106.5q0 -139 99 -139zM548 789l-49 -42l-149 93l-148 -93l-50 42 l158 142h80z" />
<glyph unicode="&#xd5;" d="M351 -13q-159 0 -250.5 97t-91.5 268q0 167 92 265.5t250 98.5t249 -98.5t91 -265.5q0 -171 -90.5 -268t-249.5 -97zM351 213q45 0 71.5 34t26.5 105q0 73 -24 106.5t-74 33.5t-74.5 -33.5t-24.5 -106.5q0 -139 99 -139zM474 909l78 -39q-9 -39 -43 -69.5t-80 -30.5 q-40 0 -83.5 17.5t-74.5 17.5q-34 0 -48 -40l-76 38q10 39 43.5 68.5t80.5 29.5q40 0 86.5 -17.5t71.5 -17.5q32 0 45 43z" />
<glyph unicode="&#xd6;" d="M351 -13q-159 0 -250.5 97t-91.5 268q0 167 92 265.5t250 98.5t249 -98.5t91 -265.5q0 -171 -90.5 -268t-249.5 -97zM351 213q45 0 71.5 34t26.5 105q0 73 -24 106.5t-74 33.5t-74.5 -33.5t-24.5 -106.5q0 -139 99 -139zM464 756q-38 0 -60.5 23t-22.5 60q0 35 23.5 58.5 t59.5 23.5q33 0 56.5 -24t23.5 -58q0 -36 -23.5 -59.5t-56.5 -23.5zM240 756q-38 0 -61 23t-23 60q0 35 24 58.5t60 23.5q33 0 56.5 -24t23.5 -58q0 -36 -23.5 -59.5t-56.5 -23.5z" />
<glyph unicode="&#xd7;" horiz-adv-x="570" d="M512 205l-81 -82l-147 147l-143 -144l-82 82l143 144l-145 145l82 81l145 -145l144 144l82 -82l-144 -144z" />
<glyph unicode="&#xd8;" d="M262 278l129 206q-16 8 -40 8q-50 0 -74.5 -33.5t-24.5 -106.5q0 -47 10 -74zM436 438l-135 -212q20 -13 50 -13q45 0 71.5 34t26.5 105q0 50 -13 86zM351 -13h-1q-99 0 -175 39l-55 -88l-55 30l58 93q-114 98 -114 291q0 167 92 265.5t250 98.5q93 0 165 -37l58 94 l54 -30l-60 -96q123 -98 123 -295q0 -171 -90.5 -268t-249.5 -97z" />
<glyph unicode="&#xd9;" horiz-adv-x="667" d="M386 264v440h244v-415q0 -147 -75 -224.5t-218 -77.5q-146 0 -224 77t-78 224v416h244v-440q0 -52 55 -52q52 0 52 52zM394 747l-228 93l66 91l209 -125z" />
<glyph unicode="&#xda;" horiz-adv-x="667" d="M386 264v440h244v-415q0 -147 -75 -224.5t-218 -77.5q-146 0 -224 77t-78 224v416h244v-440q0 -52 55 -52q52 0 52 52zM501 840l-228 -93l-47 59l209 125z" />
<glyph unicode="&#xdb;" horiz-adv-x="667" d="M386 264v440h244v-415q0 -147 -75 -224.5t-218 -77.5q-146 0 -224 77t-78 224v416h244v-440q0 -52 55 -52q52 0 52 52zM531 789l-49 -42l-149 93l-148 -93l-50 42l158 142h80z" />
<glyph unicode="&#xdc;" horiz-adv-x="667" d="M386 264v440h244v-415q0 -147 -75 -224.5t-218 -77.5q-146 0 -224 77t-78 224v416h244v-440q0 -52 55 -52q52 0 52 52zM447 756q-37 0 -60 23t-23 60q0 35 23.5 58.5t59.5 23.5q33 0 56.5 -24t23.5 -58q0 -36 -23.5 -59.5t-56.5 -23.5zM223 756q-38 0 -61 23t-23 60 q0 35 24 58.5t60 23.5q33 0 56.5 -24t23.5 -58q0 -36 -23.5 -59.5t-56.5 -23.5z" />
<glyph unicode="&#xdd;" horiz-adv-x="649" d="M375 0h-339v225h264q66 0 66 54h-102q-111 0 -170 58t-59 170v197h245v-192q0 -43 15.5 -59.5t49.5 -16.5h25v268h243v-432q0 -118 -65 -195t-173 -77zM492 840l-228 -93l-47 59l209 125z" />
<glyph unicode="&#xde;" horiz-adv-x="638" d="M285 0h-243v704h243v-70h75q123 0 196 -70.5t73 -211.5q0 -143 -74.5 -212.5t-205.5 -69.5h-64v-70zM285 296h46q52 0 52 56q0 57 -52 57h-46v-113z" />
<glyph unicode="&#xdf;" horiz-adv-x="1292" d="M397 0h-368v225h267q46 0 46 40t-46 40h-46q-116 0 -171.5 52.5t-55.5 143.5q0 93 56 148t160 55h345v-225h-245q-43 0 -43 -38q0 -41 43 -41h93q106 0 154.5 -54t48.5 -139q0 -92 -58.5 -149.5t-179.5 -57.5zM1043 0h-368v225h267q46 0 46 40t-46 40h-46 q-116 0 -171.5 52.5t-55.5 143.5q0 93 56 148t160 55h345v-225h-245q-43 0 -43 -38q0 -41 43 -41h93q106 0 154.5 -54t48.5 -139q0 -92 -58.5 -149.5t-179.5 -57.5z" />
<glyph unicode="&#xe0;" horiz-adv-x="671" d="M636 0h-226v57q-40 -70 -167 -70q-101 0 -167.5 57.5t-66.5 184.5q0 122 67.5 173t191.5 51h56q38 -11 38 -100q0 -56 -10 -82h-74q-38 0 -38 -32q0 -14 10 -24t28 -10q64 0 87.5 29.5t23.5 118.5q0 73 -20 99.5t-67 26.5h-213v225h309q99 0 168.5 -70.5t69.5 -201.5 v-432zM396 747l-228 93l66 91l209 -125z" />
<glyph unicode="&#xe1;" horiz-adv-x="671" d="M636 0h-226v57q-40 -70 -167 -70q-101 0 -167.5 57.5t-66.5 184.5q0 122 67.5 173t191.5 51h56q38 -11 38 -100q0 -56 -10 -82h-74q-38 0 -38 -32q0 -14 10 -24t28 -10q64 0 87.5 29.5t23.5 118.5q0 73 -20 99.5t-67 26.5h-213v225h309q99 0 168.5 -70.5t69.5 -201.5 v-432zM503 840l-228 -93l-47 59l209 125z" />
<glyph unicode="&#xe2;" horiz-adv-x="671" d="M636 0h-226v57q-40 -70 -167 -70q-101 0 -167.5 57.5t-66.5 184.5q0 122 67.5 173t191.5 51h56q38 -11 38 -100q0 -56 -10 -82h-74q-38 0 -38 -32q0 -14 10 -24t28 -10q64 0 87.5 29.5t23.5 118.5q0 73 -20 99.5t-67 26.5h-213v225h309q99 0 168.5 -70.5t69.5 -201.5 v-432zM533 789l-49 -42l-149 93l-148 -93l-50 42l158 142h80z" />
<glyph unicode="&#xe3;" horiz-adv-x="671" d="M636 0h-226v57q-40 -70 -167 -70q-101 0 -167.5 57.5t-66.5 184.5q0 122 67.5 173t191.5 51h56q38 -11 38 -100q0 -56 -10 -82h-74q-38 0 -38 -32q0 -14 10 -24t28 -10q64 0 87.5 29.5t23.5 118.5q0 73 -20 99.5t-67 26.5h-213v225h309q99 0 168.5 -70.5t69.5 -201.5 v-432zM460 909l78 -39q-9 -39 -43 -69.5t-80 -30.5q-40 0 -83.5 17.5t-74.5 17.5q-34 0 -48 -40l-76 38q10 39 43.5 68.5t80.5 29.5q40 0 86.5 -17.5t71.5 -17.5q32 0 45 43z" />
<glyph unicode="&#xe4;" horiz-adv-x="671" d="M636 0h-226v57q-40 -70 -167 -70q-101 0 -167.5 57.5t-66.5 184.5q0 122 67.5 173t191.5 51h56q38 -11 38 -100q0 -56 -10 -82h-74q-38 0 -38 -32q0 -14 10 -24t28 -10q64 0 87.5 29.5t23.5 118.5q0 73 -20 99.5t-67 26.5h-213v225h309q99 0 168.5 -70.5t69.5 -201.5 v-432zM459 756q-37 0 -60 23t-23 60q0 35 23.5 58.5t59.5 23.5q33 0 56.5 -24t23.5 -58q0 -36 -23.5 -59.5t-56.5 -23.5zM235 756q-38 0 -61 23t-23 60q0 35 24 58.5t60 23.5q33 0 56.5 -24t23.5 -58q0 -36 -23.5 -59.5t-56.5 -23.5z" />
<glyph unicode="&#xe5;" horiz-adv-x="671" d="M636 0h-226v57q-40 -70 -167 -70q-101 0 -167.5 57.5t-66.5 184.5q0 122 67.5 173t191.5 51h56q38 -11 38 -100q0 -56 -10 -82h-74q-38 0 -38 -32q0 -14 10 -24t28 -10q64 0 87.5 29.5t23.5 118.5q0 73 -20 99.5t-67 26.5h-213v225h309q99 0 168.5 -70.5t69.5 -201.5 v-432zM399 833q0 55 -65 55q-63 0 -63 -55q0 -58 63 -58q65 0 65 58zM484 833q0 -129 -150 -129q-147 0 -147 129q0 128 147 128q150 0 150 -128z" />
<glyph unicode="&#xe6;" horiz-adv-x="925" d="M391 189v290h-47l-61 -290h108zM905 0h-514v58h-139l-13 -58h-239l216 704h689v-225h-287v-61h258v-121h-262v-72h291v-225z" />
<glyph unicode="&#xe7;" horiz-adv-x="682" d="M675 410h-235q-17 82 -91 82q-44 0 -70.5 -37t-26.5 -103t26.5 -102.5t70.5 -36.5q31 0 57 22t33 57h235q-18 -145 -98.5 -225t-226.5 -80q-149 0 -245 97t-96 268q0 165 95.5 264.5t242.5 99.5q151 0 234.5 -80t94.5 -226zM313 -239v34q28 6 42 29q-13 -4 -26 -4 q-29 0 -51 20.5t-22 56.5q0 38 23 61t66 23q36 0 58 -22.5t22 -69.5q0 -49 -33.5 -86.5t-78.5 -41.5z" />
<glyph unicode="&#xe8;" horiz-adv-x="640" d="M606 0h-250q-153 0 -250 94t-97 254q0 163 89 265.5t243 102.5q134 0 212 -62t78 -180q0 -110 -55.5 -167t-175.5 -57h-80q-37 28 -37 98q0 53 16 86h57q48 0 48 31q0 29 -44 29q-105 0 -105 -146q0 -59 22 -91t55 -32h274v-225zM410 747l-228 93l66 91l209 -125z" />
<glyph unicode="&#xe9;" horiz-adv-x="640" d="M606 0h-250q-153 0 -250 94t-97 254q0 163 89 265.5t243 102.5q134 0 212 -62t78 -180q0 -110 -55.5 -167t-175.5 -57h-80q-37 28 -37 98q0 53 16 86h57q48 0 48 31q0 29 -44 29q-105 0 -105 -146q0 -59 22 -91t55 -32h274v-225zM487 840l-228 -93l-47 59l209 125z" />
<glyph unicode="&#xea;" horiz-adv-x="640" d="M606 0h-250q-153 0 -250 94t-97 254q0 163 89 265.5t243 102.5q134 0 212 -62t78 -180q0 -110 -55.5 -167t-175.5 -57h-80q-37 28 -37 98q0 53 16 86h57q48 0 48 31q0 29 -44 29q-105 0 -105 -146q0 -59 22 -91t55 -32h274v-225zM538 789l-49 -42l-149 93l-148 -93 l-50 42l158 142h80z" />
<glyph unicode="&#xeb;" horiz-adv-x="640" d="M606 0h-250q-153 0 -250 94t-97 254q0 163 89 265.5t243 102.5q134 0 212 -62t78 -180q0 -110 -55.5 -167t-175.5 -57h-80q-37 28 -37 98q0 53 16 86h57q48 0 48 31q0 29 -44 29q-105 0 -105 -146q0 -59 22 -91t55 -32h274v-225zM444 756q-38 0 -60.5 23t-22.5 60 q0 35 23.5 58.5t59.5 23.5q33 0 56.5 -24t23.5 -58q0 -36 -23.5 -59.5t-56.5 -23.5zM220 756q-38 0 -61 23t-23 60q0 35 24 58.5t60 23.5q33 0 56.5 -24t23.5 -58q0 -36 -23.5 -59.5t-56.5 -23.5z" />
<glyph unicode="&#xec;" horiz-adv-x="332" d="M288 0h-244v704h244v-704zM227 747l-228 93l66 91l209 -125z" />
<glyph unicode="&#xed;" horiz-adv-x="332" d="M288 0h-244v704h244v-704zM333 840l-228 -93l-47 59l209 125z" />
<glyph unicode="&#xee;" horiz-adv-x="332" d="M288 0h-244v704h244v-704zM364 789l-49 -42l-149 93l-148 -93l-50 42l158 142h80z" />
<glyph unicode="&#xef;" horiz-adv-x="332" d="M288 0h-244v704h244v-704zM280 756q-38 0 -60.5 23t-22.5 60q0 35 23.5 58.5t59.5 23.5q33 0 56.5 -24t23.5 -58q0 -36 -23.5 -59.5t-56.5 -23.5zM56 756q-38 0 -61 23t-23 60q0 35 24 58.5t60 23.5q33 0 56.5 -24t23.5 -58q0 -36 -23.5 -59.5t-56.5 -23.5z" />
<glyph unicode="&#xf0;" horiz-adv-x="687" d="M296 0h-252v282h-44v144h44v278h257q168 0 272.5 -98.5t104.5 -251.5q0 -163 -106 -258.5t-276 -95.5zM286 226h10q144 0 144 127q0 56 -33.5 91t-105.5 35h-15v-53h55v-144h-55v-56z" />
<glyph unicode="&#xf1;" horiz-adv-x="672" d="M635 0h-244v435q0 56 -60 56q-52 0 -52 -56v-435h-245v414q0 147 76 224.5t221 77.5q147 0 225.5 -77.5t78.5 -224.5v-414zM460 909l78 -39q-9 -39 -43 -69.5t-80 -30.5q-40 0 -83.5 17.5t-74.5 17.5q-34 0 -48 -40l-76 38q10 39 43.5 68.5t80.5 29.5q40 0 86.5 -17.5 t71.5 -17.5q32 0 45 43z" />
<glyph unicode="&#xf2;" d="M351 -13q-159 0 -250.5 97t-91.5 268q0 167 92 265.5t250 98.5t249 -98.5t91 -265.5q0 -171 -90.5 -268t-249.5 -97zM351 213q45 0 71.5 34t26.5 105q0 73 -24 106.5t-74 33.5t-74.5 -33.5t-24.5 -106.5q0 -139 99 -139zM410 747l-228 93l66 91l209 -125z" />
<glyph unicode="&#xf3;" d="M351 -13q-159 0 -250.5 97t-91.5 268q0 167 92 265.5t250 98.5t249 -98.5t91 -265.5q0 -171 -90.5 -268t-249.5 -97zM351 213q45 0 71.5 34t26.5 105q0 73 -24 106.5t-74 33.5t-74.5 -33.5t-24.5 -106.5q0 -139 99 -139zM517 840l-228 -93l-47 59l209 125z" />
<glyph unicode="&#xf4;" d="M351 -13q-159 0 -250.5 97t-91.5 268q0 167 92 265.5t250 98.5t249 -98.5t91 -265.5q0 -171 -90.5 -268t-249.5 -97zM351 213q45 0 71.5 34t26.5 105q0 73 -24 106.5t-74 33.5t-74.5 -33.5t-24.5 -106.5q0 -139 99 -139zM548 789l-49 -42l-149 93l-148 -93l-50 42 l158 142h80z" />
<glyph unicode="&#xf5;" d="M351 -13q-159 0 -250.5 97t-91.5 268q0 167 92 265.5t250 98.5t249 -98.5t91 -265.5q0 -171 -90.5 -268t-249.5 -97zM351 213q45 0 71.5 34t26.5 105q0 73 -24 106.5t-74 33.5t-74.5 -33.5t-24.5 -106.5q0 -139 99 -139zM474 909l78 -39q-9 -39 -43 -69.5t-80 -30.5 q-40 0 -83.5 17.5t-74.5 17.5q-34 0 -48 -40l-76 38q10 39 43.5 68.5t80.5 29.5q40 0 86.5 -17.5t71.5 -17.5q32 0 45 43z" />
<glyph unicode="&#xf6;" d="M351 -13q-159 0 -250.5 97t-91.5 268q0 167 92 265.5t250 98.5t249 -98.5t91 -265.5q0 -171 -90.5 -268t-249.5 -97zM351 213q45 0 71.5 34t26.5 105q0 73 -24 106.5t-74 33.5t-74.5 -33.5t-24.5 -106.5q0 -139 99 -139zM464 756q-38 0 -60.5 23t-22.5 60q0 35 23.5 58.5 t59.5 23.5q33 0 56.5 -24t23.5 -58q0 -36 -23.5 -59.5t-56.5 -23.5zM240 756q-38 0 -61 23t-23 60q0 35 24 58.5t60 23.5q33 0 56.5 -24t23.5 -58q0 -36 -23.5 -59.5t-56.5 -23.5z" />
<glyph unicode="&#xf7;" horiz-adv-x="570" d="M546 294h-522v116h522v-116zM287 455q-56 0 -92.5 36t-36.5 91q0 56 36.5 92t92.5 36q52 0 88.5 -36.5t36.5 -91.5q0 -54 -36.5 -90.5t-88.5 -36.5zM287 -5q-56 0 -92.5 36t-36.5 91q0 56 36.5 92t92.5 36q52 0 88.5 -36.5t36.5 -91.5q0 -54 -36.5 -90.5t-88.5 -36.5z " />
<glyph unicode="&#xf8;" d="M262 278l129 206q-16 8 -40 8q-50 0 -74.5 -33.5t-24.5 -106.5q0 -47 10 -74zM436 438l-135 -212q20 -13 50 -13q45 0 71.5 34t26.5 105q0 50 -13 86zM351 -13h-1q-99 0 -175 39l-55 -88l-55 30l58 93q-114 98 -114 291q0 167 92 265.5t250 98.5q93 0 165 -37l58 94 l54 -30l-60 -96q123 -98 123 -295q0 -171 -90.5 -268t-249.5 -97z" />
<glyph unicode="&#xf9;" horiz-adv-x="667" d="M386 264v440h244v-415q0 -147 -75 -224.5t-218 -77.5q-146 0 -224 77t-78 224v416h244v-440q0 -52 55 -52q52 0 52 52zM394 747l-228 93l66 91l209 -125z" />
<glyph unicode="&#xfa;" horiz-adv-x="667" d="M386 264v440h244v-415q0 -147 -75 -224.5t-218 -77.5q-146 0 -224 77t-78 224v416h244v-440q0 -52 55 -52q52 0 52 52zM501 840l-228 -93l-47 59l209 125z" />
<glyph unicode="&#xfb;" horiz-adv-x="667" d="M386 264v440h244v-415q0 -147 -75 -224.5t-218 -77.5q-146 0 -224 77t-78 224v416h244v-440q0 -52 55 -52q52 0 52 52zM531 789l-49 -42l-149 93l-148 -93l-50 42l158 142h80z" />
<glyph unicode="&#xfc;" horiz-adv-x="667" d="M386 264v440h244v-415q0 -147 -75 -224.5t-218 -77.5q-146 0 -224 77t-78 224v416h244v-440q0 -52 55 -52q52 0 52 52zM447 756q-37 0 -60 23t-23 60q0 35 23.5 58.5t59.5 23.5q33 0 56.5 -24t23.5 -58q0 -36 -23.5 -59.5t-56.5 -23.5zM223 756q-38 0 -61 23t-23 60 q0 35 24 58.5t60 23.5q33 0 56.5 -24t23.5 -58q0 -36 -23.5 -59.5t-56.5 -23.5z" />
<glyph unicode="&#xfd;" horiz-adv-x="649" d="M375 0h-339v225h264q66 0 66 54h-102q-111 0 -170 58t-59 170v197h245v-192q0 -43 15.5 -59.5t49.5 -16.5h25v268h243v-432q0 -118 -65 -195t-173 -77zM492 840l-228 -93l-47 59l209 125z" />
<glyph unicode="&#xfe;" horiz-adv-x="638" d="M285 0h-243v704h243v-70h75q123 0 196 -70.5t73 -211.5q0 -143 -74.5 -212.5t-205.5 -69.5h-64v-70zM285 296h46q52 0 52 56q0 57 -52 57h-46v-113z" />
<glyph unicode="&#xff;" horiz-adv-x="649" d="M375 0h-339v225h264q66 0 66 54h-102q-111 0 -170 58t-59 170v197h245v-192q0 -43 15.5 -59.5t49.5 -16.5h25v268h243v-432q0 -118 -65 -195t-173 -77zM438 756q-38 0 -60.5 23t-22.5 60q0 35 23.5 58.5t59.5 23.5q33 0 56.5 -24t23.5 -58q0 -36 -23.5 -59.5t-56.5 -23.5 zM214 756q-38 0 -61 23t-23 60q0 35 24 58.5t60 23.5q33 0 56.5 -24t23.5 -58q0 -36 -23.5 -59.5t-56.5 -23.5z" />
<glyph unicode="&#x152;" horiz-adv-x="1004" d="M351 213q45 0 71.5 34t26.5 105q0 73 -24 106.5t-74 33.5t-74.5 -33.5t-24.5 -106.5q0 -139 99 -139zM977 0h-304q-81 0 -137 33q-78 -46 -185 -46h-1q-159 0 -250 97t-91 268q0 167 92 265.5t250 98.5q102 0 180 -45q50 33 127 33h318v-223h-260q-31 0 -31 -31 q0 -30 31 -30h229v-121h-224q-27 0 -34 -16l-5 -28q4 -28 39 -28h256v-227z" />
<glyph unicode="&#x153;" horiz-adv-x="1004" d="M351 213q45 0 71.5 34t26.5 105q0 73 -24 106.5t-74 33.5t-74.5 -33.5t-24.5 -106.5q0 -139 99 -139zM977 0h-304q-81 0 -137 33q-78 -46 -185 -46h-1q-159 0 -250 97t-91 268q0 167 92 265.5t250 98.5q102 0 180 -45q50 33 127 33h318v-223h-260q-31 0 -31 -31 q0 -30 31 -30h229v-121h-224q-27 0 -34 -16l-5 -28q4 -28 39 -28h256v-227z" />
<glyph unicode="&#x178;" horiz-adv-x="649" d="M375 0h-339v225h264q66 0 66 54h-102q-111 0 -170 58t-59 170v197h245v-192q0 -43 15.5 -59.5t49.5 -16.5h25v268h243v-432q0 -118 -65 -195t-173 -77zM438 756q-38 0 -60.5 23t-22.5 60q0 35 23.5 58.5t59.5 23.5q33 0 56.5 -24t23.5 -58q0 -36 -23.5 -59.5t-56.5 -23.5 zM214 756q-38 0 -61 23t-23 60q0 35 24 58.5t60 23.5q33 0 56.5 -24t23.5 -58q0 -36 -23.5 -59.5t-56.5 -23.5z" />
<glyph unicode="&#x2c6;" horiz-adv-x="485" d="M440 789l-49 -42l-149 93l-148 -93l-50 42l158 142h80z" />
<glyph unicode="&#x2dc;" horiz-adv-x="494" d="M371 909l78 -39q-9 -39 -43 -69.5t-80 -30.5q-40 0 -83.5 17.5t-74.5 17.5q-34 0 -48 -40l-76 38q10 39 43.5 68.5t80.5 29.5q40 0 86.5 -17.5t71.5 -17.5q32 0 45 43z" />
<glyph unicode="&#x2000;" horiz-adv-x="480" />
<glyph unicode="&#x2001;" horiz-adv-x="961" />
<glyph unicode="&#x2002;" horiz-adv-x="480" />
<glyph unicode="&#x2003;" horiz-adv-x="961" />
<glyph unicode="&#x2004;" horiz-adv-x="320" />
<glyph unicode="&#x2005;" horiz-adv-x="240" />
<glyph unicode="&#x2006;" horiz-adv-x="160" />
<glyph unicode="&#x2007;" horiz-adv-x="160" />
<glyph unicode="&#x2008;" horiz-adv-x="120" />
<glyph unicode="&#x2009;" horiz-adv-x="192" />
<glyph unicode="&#x200a;" horiz-adv-x="53" />
<glyph unicode="&#x2010;" horiz-adv-x="312" d="M295 302h-279v144h279v-144z" />
<glyph unicode="&#x2011;" horiz-adv-x="312" d="M295 302h-279v144h279v-144z" />
<glyph unicode="&#x2012;" horiz-adv-x="312" d="M295 302h-279v144h279v-144z" />
<glyph unicode="&#x2013;" horiz-adv-x="497" d="M480 302h-464v144h464v-144z" />
<glyph unicode="&#x2014;" horiz-adv-x="798" d="M781 302h-765v144h765v-144z" />
<glyph unicode="&#x2018;" horiz-adv-x="321" d="M204 743v-52q-42 -8 -65 -44q25 7 41 7q43 0 76 -32t33 -85q0 -58 -34.5 -93t-100.5 -35q-54 0 -87.5 34t-33.5 104q0 76 51 133t120 63z" />
<glyph unicode="&#x2019;" horiz-adv-x="320" d="M118 382v52q42 9 65 44q-19 -6 -42 -6q-42 0 -74 30.5t-34 85.5q0 59 33.5 93.5t100.5 34.5q53 0 87 -34t34 -104q0 -74 -51 -132t-119 -64z" />
<glyph unicode="&#x201a;" horiz-adv-x="320" d="M118 -79v52q41 9 65 44q-24 -6 -42 -6q-43 0 -75.5 31t-32.5 85q0 59 33.5 93.5t100.5 34.5q53 0 87 -34t34 -104q0 -74 -51 -132t-119 -64z" />
<glyph unicode="&#x201c;" horiz-adv-x="642" d="M204 743v-52q-42 -8 -65 -44q25 7 41 7q43 0 76 -32t33 -85q0 -58 -34.5 -93t-100.5 -35q-54 0 -87.5 34t-33.5 104q0 76 51 133t120 63zM525 743v-52q-42 -8 -65 -44q25 7 41 7q43 0 76 -32t33 -85q0 -58 -34.5 -93t-100.5 -35q-54 0 -87.5 34t-33.5 104q0 76 51 133 t120 63z" />
<glyph unicode="&#x201d;" horiz-adv-x="640" d="M118 382v52q42 9 65 44q-19 -6 -42 -6q-42 0 -74 30.5t-34 85.5q0 59 33.5 93.5t100.5 34.5q53 0 87 -34t34 -104q0 -74 -51 -132t-119 -64zM438 382v52q42 9 65 44q-19 -6 -42 -6q-42 0 -74 30.5t-34 85.5q0 59 33.5 93.5t100.5 34.5q53 0 87 -34t34 -104 q0 -74 -51 -132t-119 -64z" />
<glyph unicode="&#x201e;" horiz-adv-x="640" d="M118 -79v52q41 9 65 44q-24 -6 -42 -6q-43 0 -75.5 31t-32.5 85q0 59 33.5 93.5t100.5 34.5q53 0 87 -34t34 -104q0 -74 -51 -132t-119 -64zM438 -79v52q41 9 65 44q-24 -6 -42 -6q-43 0 -75.5 31t-32.5 85q0 59 33.5 93.5t100.5 34.5q53 0 87 -34t34 -104 q0 -74 -51 -132t-119 -64z" />
<glyph unicode="&#x2022;" horiz-adv-x="340" d="M307 352q0 -57 -40.5 -96.5t-97.5 -39.5q-58 0 -97 39.5t-39 96.5q0 58 39.5 98.5t96.5 40.5t97.5 -40.5t40.5 -98.5z" />
<glyph unicode="&#x2026;" horiz-adv-x="1455" d="M148 -5q-56 0 -92.5 36t-36.5 91q0 56 36.5 92t92.5 36q52 0 88.5 -36.5t36.5 -91.5q0 -54 -36.5 -90.5t-88.5 -36.5zM730 -5q-56 0 -92.5 36t-36.5 91q0 56 36.5 92t92.5 36q52 0 88.5 -36.5t36.5 -91.5q0 -54 -36.5 -90.5t-88.5 -36.5zM1312 -5q-56 0 -92.5 36 t-36.5 91q0 56 36.5 92t92.5 36q52 0 88.5 -36.5t36.5 -91.5q0 -54 -36.5 -90.5t-88.5 -36.5z" />
<glyph unicode="&#x202f;" horiz-adv-x="192" />
<glyph unicode="&#x2039;" horiz-adv-x="296" d="M283 171l-82 -73l-187 234l186 231l83 -70l-136 -161z" />
<glyph unicode="&#x203a;" horiz-adv-x="295" d="M94 98l-80 73l134 161l-134 161l82 70l186 -231z" />
<glyph unicode="&#x205f;" horiz-adv-x="240" />
<glyph unicode="&#x20ac;" horiz-adv-x="628" d="M580 0h-308q-112 0 -175 60.5t-63 170.5v231q0 116 62 179t157 63h350l-67 -225h-204q-49 0 -49 -50v-9h235l-17 -56h-218v-27h211l-17 -56h-194v-6q0 -50 49 -50h248v-225z" />
<glyph unicode="&#x2122;" horiz-adv-x="610" d="M574 392h-83v200q0 18 -13 18q-15 0 -15 -18v-200h-81v200q0 18 -16 18q-14 0 -14 -18v-200h-81v218q0 46 25.5 72t65.5 26q38 0 59 -27q19 27 59 27t67 -26.5t27 -71.5v-218zM175 392h-88v220h-70v92h228v-92h-70v-220z" />
<glyph unicode="&#x25fc;" horiz-adv-x="705" d="M0 705h705v-705h-705v705z" />
</font>
</defs>
</svg>
